<?xml version="1.0" encoding="UTF-8"?>
<svg id="Designs" xmlns="http://www.w3.org/2000/svg" viewBox="0 0 150 150">
  <defs>
    <style>
      .cls-1 {
        fill: #061ab1;
      }

      .cls-2 {
        stroke-linecap: round;
      }

      .cls-2, .cls-3, .cls-4 {
        fill: none;
        stroke: #061ab1;
        stroke-width: 5px;
      }

      .cls-2, .cls-4 {
        stroke-linejoin: round;
      }

      .cls-3 {
        stroke-miterlimit: 10;
      }

      .cls-3, .cls-4 {
        stroke-linecap: square;
      }
    </style>
  </defs>
  <g id="Shipment_tracking" data-name="Shipment tracking">
    <g>
      <circle class="cls-2" cx="111.71" cy="21.37" r="6.21"/>
      <path class="cls-2" d="m126.61,21.37c0,9.93-14.9,23.59-14.9,23.59,0,0-14.9-13.66-14.9-23.59,0-8.23,6.67-14.9,14.9-14.9s14.9,6.67,14.9,14.9Z"/>
    </g>
  </g>
  <path class="cls-1" d="m44.53,105.87c-2.99,0-5.42-2.43-5.42-5.42s2.43-5.42,5.42-5.42,5.42,2.43,5.42,5.42-2.43,5.42-5.42,5.42Z"/>
  <path class="cls-1" d="m96.48,104.48c-2.99,0-5.42-2.43-5.42-5.42s2.43-5.42,5.42-5.42,5.42,2.43,5.42,5.42-2.43,5.42-5.42,5.42Z"/>
  <g id="global_logistics_transports" data-name="global logistics/transports">
    <g>
      <path class="cls-2" d="m87.81,106.74l4.31,15.22,1.04,7.75c.44,1.14,1.56,1.48,2.35.72l7.27-7.38c.4-.39.63-.99.63-1.63v-4.48c0-.4.09-.8.26-1.13l8.9-12.84c.17-.33.26-.73.26-1.13l-.98-5.35,2.4-4.8,4.72-6.5-4.21-10.51,6.42-2.67,4.8,7.2"/>
      <path class="cls-2" d="m85.65,41.29c-.98,0-1.86.6-2.23,1.51l-2.64,6.61c-.64,1.6.56,3.32,2.29,3.28,2.38-.06,3.61-1.46,6.09.87.15.14.31.26.49.35.82.41,3.2,1.6,3.2,1.6.81.41,1.33,1.24,1.33,2.15v.92c0,1.32-1.07,2.4-2.4,2.4l-4.97,1.9c-.26,0-.51-.04-.76-.12l-4.85-1.62c-1.13-.38-2.37.14-2.9,1.2l-1.5,3.83-7,8.88c2.13,4.09,2.03,4.9,2.25,5.6l1.64,5.43h7.97l2.13,5.45"/>
    </g>
  </g>
  <path class="cls-2" d="m53.87,109.46l-2.43,5.93s2.81,10.54,2.94,12.88c.18,3.21-14.35-7.65-15.99-14.85-1.64-7.2-3.78-9.6-3.78-9.6l-8.09-11.66c-.15-.22-.26-.47-.32-.74l-1.55-6.79"/>
  <path class="cls-2" d="m63.86,34.59c.96,1.07.59,2.85-.76,3.69l-2.96,1.84c-1.18.74-1.64,2.22-1.02,3.33l1.14,2.03c.82,1.47-.28,3.46-2.05,3.71l-11.83,1.66c-.86.12-1.64.69-2.05,1.48l-4.65,9.2c-.46.91-1.41,1.51-2.39,1.51h-4.58c-.64,0-1.27.25-1.77.7l-2.9,2.62c-.93.84-1.17,2.18-.55,3.14l4.67,7.25c.28.44.72.75,1.24.89l7.36-.14c.41.11.77.32,1.05.63l5.53,6.18c.32.35.75.59,1.23.67l10.67,1.81c1.43.24,1.83,2.3.07,6.81"/>
  <path class="cls-2" d="m126.01,51.24c5.85,9.28,9.23,20.28,9.23,32.06,0,33.27-26.97,60.24-60.24,60.24S14.76,116.56,14.76,83.3s26.97-60.24,60.24-60.24c3.3,0,6.54.27,9.7.78"/>
  <line class="cls-4" x1="54.13" y1="100.45" x2="80.69" y2="100.45"/>
  <polyline class="cls-3" points="77.89 105.98 83.53 100.43 77.85 94.92"/>
  <g>
    <line class="cls-3" x1="99.99" y1="88.41" x2="108.9" y2="57.51"/>
    <polyline class="cls-3" points="113.48 62.3 109.51 55.41 102.75 59.6"/>
  </g>
</svg>